<svg width="51" height="50" viewBox="0 0 51 50" fill="none" xmlns="http://www.w3.org/2000/svg">
<path d="M22.375 25.9219L18.3281 21.875L16.125 24.0781L22.375 30.3281L34.875 17.8281L32.6719 15.625L22.375 25.9219Z" fill="#AC3D67"/>
<path d="M25.5 46.875L15.85 41.7297C13.099 40.2661 10.7984 38.081 9.1952 35.4089C7.592 32.7369 6.7467 29.6786 6.75001 26.5625V6.25C6.75084 5.42145 7.08034 4.62708 7.66621 4.0412C8.25209 3.45533 9.04646 3.12583 9.87501 3.125H41.125C41.9536 3.12583 42.7479 3.45533 43.3338 4.0412C43.9197 4.62708 44.2492 5.42145 44.25 6.25V26.5625C44.2533 29.6786 43.408 32.7369 41.8048 35.4089C40.2016 38.081 37.9011 40.2661 35.15 41.7297L25.5 46.875ZM9.87501 6.25V26.5625C9.87242 29.1122 10.5642 31.6145 11.8762 33.8007C13.1882 35.987 15.0708 37.7746 17.3219 38.9719L25.5 43.3328L33.6781 38.9734C35.9295 37.7761 37.8122 35.9881 39.1242 33.8016C40.4362 31.6151 41.1279 29.1125 41.125 26.5625V6.25H9.87501Z" fill="#AC3D67"/>
</svg>
