<svg width="25" height="25" viewBox="0 0 25 25" fill="none" xmlns="http://www.w3.org/2000/svg">
<path d="M8.93739 12.3274C9.69955 13.9615 10.9723 15.2794 12.5481 16.0665C12.6644 16.1236 12.7929 16.1484 12.9212 16.1382C13.0494 16.1281 13.1729 16.0835 13.2795 16.0088L15.5941 14.4036C15.6964 14.3316 15.8145 14.2876 15.9376 14.2759C16.0606 14.2641 16.1845 14.2849 16.2977 14.3363L20.6306 16.2683C20.7787 16.3323 20.9024 16.4451 20.9827 16.5892C21.063 16.7334 21.0955 16.901 21.075 17.0661C20.9377 18.1789 20.4145 19.2017 19.6034 19.943C18.7922 20.6843 17.7487 21.0933 16.6681 21.0936C13.3287 21.0936 10.126 19.7163 7.76469 17.2648C5.40336 14.8132 4.07678 11.4882 4.07678 8.02121C4.07703 6.89929 4.47101 5.81591 5.18502 4.97377C5.89903 4.13164 6.88414 3.58846 7.95601 3.44589C8.1151 3.42467 8.2765 3.45834 8.41536 3.54171C8.55421 3.62507 8.66281 3.75352 8.72445 3.90726L10.5854 8.4153C10.6338 8.53098 10.654 8.65724 10.6443 8.78296C10.6346 8.90867 10.5953 9.02999 10.5298 9.1362L8.98368 11.5777C8.91485 11.6881 8.87445 11.815 8.86634 11.9463C8.85824 12.0775 8.8827 12.2088 8.93739 12.3274V12.3274Z" stroke="#AC3D67" stroke-width="2" stroke-linecap="round" stroke-linejoin="round"/>
</svg>
