<svg width="24" height="25" viewBox="0 0 24 25" fill="none" xmlns="http://www.w3.org/2000/svg">
<path d="M12 16.2401C14.0711 16.2401 15.75 14.5612 15.75 12.4901C15.75 10.419 14.0711 8.74011 12 8.74011C9.92893 8.74011 8.25 10.419 8.25 12.4901C8.25 14.5612 9.92893 16.2401 12 16.2401Z" stroke="#AC3D67" stroke-width="2" stroke-miterlimit="10"/>
<path d="M16.125 3.86511H7.875C5.38972 3.86511 3.375 5.87983 3.375 8.36511V16.6151C3.375 19.1004 5.38972 21.1151 7.875 21.1151H16.125C18.6103 21.1151 20.625 19.1004 20.625 16.6151V8.36511C20.625 5.87983 18.6103 3.86511 16.125 3.86511Z" stroke="#AC3D67" stroke-width="2" stroke-linecap="round" stroke-linejoin="round"/>
<path d="M16.875 8.74011C17.4963 8.74011 18 8.23643 18 7.61511C18 6.99379 17.4963 6.49011 16.875 6.49011C16.2537 6.49011 15.75 6.99379 15.75 7.61511C15.75 8.23643 16.2537 8.74011 16.875 8.74011Z" fill="#AC3D67"/>
</svg>
