<svg width="51" height="50" viewBox="0 0 51 50" fill="none" xmlns="http://www.w3.org/2000/svg">
<g clip-path="url(#clip0_81_597)">
<path fill-rule="evenodd" clip-rule="evenodd" d="M49.4583 38.5417C49.4583 41.3044 48.3609 43.9539 46.4074 45.9074C44.4539 47.8609 41.8043 48.9584 39.0417 48.9584C36.279 48.9584 33.6295 47.8609 31.676 45.9074C29.7225 43.9539 28.625 41.3044 28.625 38.5417C28.625 35.7791 29.7225 33.1295 31.676 31.176C33.6295 29.2225 36.279 28.1251 39.0417 28.1251C41.8043 28.1251 44.4539 29.2225 46.4074 31.176C48.3609 33.1295 49.4583 35.7791 49.4583 38.5417V38.5417Z" stroke="#AC3D67" stroke-width="3" stroke-linejoin="round"/>
<path d="M44.2499 38.5417H33.8333M39.0416 33.3334V43.75V33.3334Z" stroke="#AC3D67" stroke-width="3" stroke-linecap="round" stroke-linejoin="round"/>
<path d="M29.5937 27.6719C27.9791 27.1354 26.2291 26.5625 24.4583 25.8854V20.6771C24.4583 20.6771 27.5833 19.3906 27.5833 14.4271C29.2135 14.4271 29.2135 10.1146 27.5833 10.1146C27.5833 9.6354 29.302 6.77081 28.625 4.0104C27.6354 0.0520633 16.0729 0.0520633 15.0833 4.0156C10.151 3.02602 13 9.60415 13 10.2656C11.3698 10.2656 11.3698 14.4323 13 14.4323C13 19.3958 16.125 20.6823 16.125 20.6823V25.8906C10.3385 28.0937 3.44267 29.5521 2.58329 32.1406C1.59371 35.1198 1.54163 40.625 1.54163 40.625H23.4166" stroke="#AC3D67" stroke-width="3" stroke-linejoin="round"/>
</g>
<defs>
<clipPath id="clip0_81_597">
<rect width="50" height="50" fill="white" transform="translate(0.5)"/>
</clipPath>
</defs>
</svg>
